#!OML:ASF E:\Mandelcareful walks\Project 1\Capture day 1\Session 1\Subject1.ASF
:FULLY-SPECIFIED
:DEGREES
124
root 10.243 16.6551 -1.39035 -192.639 -86.2992 196.588
lowerback 18.4628 1.40847 3.23407
upperback 7.4259 1.93654 1.23256
thorax -2.28466 0.784749 -0.904455
lowerneck -24.9052 3.05271 -1.26595
upperneck 29.0053 6.41665 -5.32238
head 14.3071 1.6729 -0.739231
rclavicle 1.64991e-014 3.97569e-015
rhumerus -18.6515 -8.69986 -79.9029
rradius 29.7992
rwrist -12.6479
rhand -10.565 -31.3936
rfingers 7.12502
rthumb 15.4395 -60.7969
lclavicle 1.64991e-014 3.97569e-015
lhumerus -25.8623 4.92572 84.3368
lradius 33.0953
lwrist 10.9906
lhand -19.0505 -12.8571
lfingers 7.12502
lthumb 7.25643 16.9985
rfemur -3.24557 -12.9926 13.7804
rtibia 20.173
rfoot -15.218 -13.5652
rtoes -7.6488
lfemur -25.1096 7.11537 -8.55742
ltibia 27.9957
lfoot -8.05371 12.3041
ltoes -3.17817
125
root 10.154 16.6485 -1.24188 -188.146 -86.1745 192.434
lowerback 19.0627 1.54447 2.61338
upperback 7.23398 2.03398 1.0607
thorax -2.81659 0.819368 -0.772547
lowerneck -24.7169 3.00434 -1.44297
upperneck 28.6757 6.31246 -5.07233
head 14.1008 1.66618 -0.62655
rclavicle -8.34896e-015 2.22639e-014
rhumerus -19.0607 -8.03005 -79.7924
rradius 30.822
rwrist -13.4922
rhand -10.53 -31.1703
rfingers 7.12502
rthumb 15.4732 -60.571
lclavicle -8.34896e-015 2.22639e-014
lhumerus -25.7258 4.12549 84.3823
lradius 33.5309
lwrist 11.5009
lhand -19.5983 -12.5684
lfingers 7.12502
lthumb 6.72758 17.3047
rfemur -4.0245 -13.3231 12.8407
rtibia 21.4658
rfoot -14.91 -12.9547
rtoes -7.63033
lfemur -25.9692 8.05458 -9.57165
ltibia 29.3349
lfoot -7.88915 11.3181
ltoes -2.67168
126
root 10.0694 16.644 -1.09585 -184.745 -85.983 189.328
lowerback 19.4372 1.6958 2.01392
upperback 7.26975 2.11718 0.893322
thorax -2.98802 0.849201 -0.63705
lowerneck -24.7339 3.00618 -1.51552
upperneck 28.2701 6.28187 -4.91885
head 13.9175 1.68908 -0.553816
rclavicle 3.97569e-016 -6.75868e-015
rhumerus -19.1791 -7.38289 -79.7768
rradius 32.1252
rwrist -14.3565
rhand -10.451 -31.1074
rfingers 7.12502
rthumb 15.5493 -60.5023
lclavicle 3.97569e-016 -6.75868e-015
lhumerus -25.0424 3.38734 84.3854
lradius 33.7138
lwrist 12.015
lhand -19.9009 -12.5904
lfingers 7.12502
lthumb 6.43548 17.2919
rfemur -5.13904 -13.5916 11.9818
rtibia 23.2768
rfoot -14.4253 -12.4367
rtoes -9.36284
lfemur -26.7797 8.95038 -10.512
ltibia 30.6012
lfoot -7.65182 10.7533
ltoes -1.61613
127
root 9.9879 16.6382 -0.952318 -181.832 -85.794 186.61
lowerback 19.8891 1.84707 1.50133
upperback 7.34694 2.20417 0.703727
thorax -3.14982 0.880551 -0.577198
lowerneck -24.8871 2.96862 -1.3997
upperneck 28.0151 6.22892 -5.06691
head 13.8503 1.66772 -0.637888
rclavicle 5.76476e-015 -3.97569e-015
rhumerus -19.2111 -6.89445 -79.7724
rradius 33.4853
rwrist -15.2151
rhand -10.3286 -31.1937
rfingers 7.12502
rthumb 15.6671 -60.5793
lclavicle 5.76476e-015 -3.97569e-015
lhumerus -24.2721 2.54368 84.3337
lradius 33.9061
lwrist 12.4022
lhand -20.0096 -12.8828
lfingers 7.12502
lthumb 6.33057 17.0026
rfemur -6.43599 -13.7999 11.1028
rtibia 25.5811
rfoot -13.8982 -11.8736
rtoes -11.205
lfemur -27.4426 9.7111 -11.3771
ltibia 31.7947
lfoot -7.59069 10.3428
ltoes 1.1812
128
root 9.91124 16.6329 -0.805358 -179.03 -85.5603 183.957
lowerback 20.4145 1.9995 1.01136
upperback 7.39384 2.29335 0.540039
thorax -3.38131 0.912412 -0.506931
lowerneck -24.9475 2.87707 -1.44811
upperneck 27.7758 6.10947 -5.06283
head 13.7561 1.62267 -0.647653
rclavicle 1.45113e-014 -1.86858e-014
rhumerus -19.2844 -6.51165 -79.6983
rradius 34.952
rwrist -16.0721
rhand -10.3528 -30.9294
rfingers 7.12502
rthumb 15.6439 -60.3169
lclavicle 1.45113e-014 -1.86858e-014
lhumerus -23.6203 1.67407 84.3267
lradius 34.1943
lwrist 12.6416
lhand -20.1594 -13.153
lfingers 7.12502
lthumb 6.18596 16.7366
rfemur -7.95929 -14.0913 10.1546
rtibia 28.3184
rfoot -13.2928 -11.1095
rtoes -12.2841
lfemur -27.9839 10.2587 -12.2162
ltibia 32.9152
lfoot -7.97439 9.9007
ltoes 3.3119
129
root 9.83866 16.6147 -0.660922 -176.857 -85.2164 181.883
lowerback 20.9883 2.16748 0.490382
upperback 7.43951 2.38735 0.376102
thorax -3.63946 0.945634 -0.423371
lowerneck -25.0003 2.83591 -1.61226
upperneck 27.549 6.00689 -4.73369
head 13.6463 1.62108 -0.50584
rclavicle 1.98785e-016 -1.19271e-014
rhumerus -19.338 -6.01218 -79.6979
rradius 36.484
rwrist -16.8892
rhand -10.2487 -31.0141
rfingers 7.12502
rthumb 15.7441 -60.3937
lclavicle 1.98785e-016 -1.19271e-014
lhumerus -22.9299 0.779182 84.2745
lradius 34.4358
lwrist 13.1721
lhand -20.3849 -13.0991
lfingers 7.12502
lthumb 5.96822 16.7969
rfemur -9.58502 -14.3568 9.20894
rtibia 31.3639
rfoot -12.4756 -10.1733
rtoes -12.033
lfemur -28.4104 10.7404 -12.9812
ltibia 33.9352
lfoot -8.51771 9.55219
ltoes 4.19082
130
root 9.77015 16.5908 -0.526832 -175.079 -84.8043 180.162
lowerback 21.6412 2.36944 -0.12357
upperback 7.48806 2.4959 0.234558
thorax -3.9391 0.983923 -0.270795
lowerneck -25.1054 2.87837 -1.61
upperneck 27.3407 6.03951 -4.64994
head 13.5762 1.65696 -0.463801
rclavicle -1.39149e-015 1.21259e-014
rhumerus -19.2377 -5.27161 -79.7252
rradius 37.868
rwrist -17.737
rhand -10.1631 -31.5338
rfingers 7.12502
rthumb 15.8266 -60.9069
lclavicle -1.39149e-015 1.21259e-014
lhumerus -22.1539 -0.0739844 84.1654
lradius 34.5731
lwrist 13.7331
lhand -20.6853 -13.0835
lfingers 7.12502
lthumb 5.67818 16.8204
rfemur -11.3011 -14.5248 8.32457
rtibia 34.5126
rfoot -11.2884 -9.31217
rtoes -10.9982
lfemur -28.7922 11.3284 -13.7256
ltibia 34.891
lfoot -8.9277 9.30912
ltoes 4.11267
131
root 9.69937 16.589 -0.398158 -173.426 -84.3807 178.574
lowerback 22.1522 2.5697 -0.798282
upperback 7.56203 2.58231 0.121581
thorax -4.14289 1.01175 -0.0445799
lowerneck -24.9766 2.89515 -1.56398
upperneck 26.915 6.04262 -4.7195
head 13.3762 1.67493 -0.496705
rclavicle 2.0773e-014 -1.59028e-014
rhumerus -18.9457 -4.66269 -79.7108
rradius 38.9724
rwrist -18.4232
rhand -10.072 -31.6623
rfingers 7.12502
rthumb 15.9143 -61.0284
lclavicle 2.0773e-014 -1.59028e-014
lhumerus -21.4182 -0.847552 84.0217
lradius 34.6557
lwrist 14.0759
lhand -20.8581 -13.9564
lfingers 7.12502
lthumb 5.51134 15.952
rfemur -13.2388 -14.7965 7.51179
rtibia 37.5849
rfoot -9.61002 -8.69315
rtoes -11.3689
lfemur -29.1243 11.9819 -14.5228
ltibia 35.8217
lfoot -9.55363 8.97034
ltoes 2.41921
132
root 9.62942 16.5907 -0.276833 -174.918 -83.9814 180.129
lowerback 22.589 2.72148 -1.18174
upperback 7.61039 2.67066 0.10038
thorax -4.3279 1.04384 0.114985
lowerneck -24.631 2.83962 -1.72573
upperneck 26.348 5.91706 -4.50077
head 13.0537 1.66742 -0.408191
rclavicle -4.27387e-015 7.7526e-015
rhumerus -18.6784 -4.39574 -79.7056
rradius 40.0193
rwrist -18.681
rhand -10.5556 -31.0762
rfingers 7.12502
rthumb 15.4486 -60.4789
lclavicle -4.27387e-015 7.7526e-015
lhumerus -20.8075 -1.74258 83.8574
lradius 34.7945
lwrist 14.6562
lhand -20.9999 -14.7904
lfingers 7.12502
lthumb 5.37445 15.1215
rfemur -15.1715 -15.0828 7.14796
rtibia 40.4241
rfoot -7.94009 -8.22273
rtoes -11.6179
lfemur -29.4309 12.5438 -14.8693
ltibia 36.7479
lfoot -10.3408 8.61429
ltoes 2.1459
133
root 9.56431 16.5823 -0.164902 -178.234 -83.6654 183.579
lowerback 23.0816 2.80852 -1.31903
upperback 7.54092 2.73909 0.152677
thorax -4.66078 1.07223 0.21372
lowerneck -24.4072 2.81361 -1.9483
upperneck 25.9978 5.84736 -4.19619
head 12.8437 1.67802 -0.267427
rclavicle 2.6985e-014 -1.09332e-015
rhumerus -18.5884 -4.1718 -79.7052
rradius 41.271
rwrist -18.8712
rhand -10.9562 -30.4558
rfingers 7.12502
rthumb 15.0627 -59.8878
lclavicle 2.6985e-014 -1.09332e-015
lhumerus -20.2312 -2.6231 83.6724
lradius 34.8836
lwrist 15.2873
lhand -21.2612 -14.5462
lfingers 7.12502
lthumb 5.1221 15.3719
rfemur -16.9555 -15.4734 7.14142
rtibia 42.8626
rfoot -6.65704 -7.90462
rtoes -10.7796
lfemur -29.9082 13.0131 -14.8939
ltibia 37.7359
lfoot -10.7593 8.51003
ltoes 3.85436
134
root 9.50827 16.5685 -0.0569089 -177.666 -83.7171 183.291
lowerback 23.4076 2.76961 -1.6988
upperback 7.46085 2.59305 0.100393
thorax -4.92358 1.00009 0.400334
lowerneck -24.3474 2.81685 -2.0234
upperneck 25.7153 5.82905 -4.07023
head 12.709 1.69459 -0.209826
rclavicle -5.26779e-015 -2.98177e-015
rhumerus -18.3973 -3.77999 -79.7993
rradius 42.3767
rwrist -19.6499
rhand -9.84083 -30.4713
rfingers 7.12502
rthumb 16.1369 -59.8195
lclavicle -5.26779e-015 -2.98177e-015
lhumerus -19.5103 -3.34465 83.3982
lradius 34.9164
lwrist 15.7524
lhand -21.4478 -14.0359
lfingers 7.12502
lthumb 4.94196 15.8865
rfemur -18.5677 -16.4602 6.73371
rtibia 44.7602
rfoot -5.86679 -7.60075
rtoes -10.7925
lfemur -30.6957 13.2813 -15.4935
ltibia 38.8402
lfoot -11.1108 8.36655
ltoes 4.08522
135
root 9.45966 16.5434 0.0363281 -177.87 -83.9049 183.685
lowerback 23.755 2.69508 -2.05528
upperback 7.45625 2.40206 0.128548
thorax -5.11413 0.903304 0.675784
lowerneck -24.3351 2.78894 -2.1084
upperneck 25.3967 5.79536 -4.02305
head 12.5735 1.69271 -0.183276
rclavicle 1.3418e-014 6.73383e-015
rhumerus -18.1249 -3.58706 -79.8363
rradius 43.78
rwrist -19.6429
rhand -11.592 -29.3213
rfingers 7.12502
rthumb 14.4501 -58.7982
lclavicle 1.3418e-014 6.73383e-015
lhumerus -18.7121 -3.8329 83.056
lradius 35.0274
lwrist 15.9132
lhand -21.3934 -13.8657
lfingers 7.12502
lthumb 4.99449 16.0554
rfemur -19.8824 -17.3725 6.52055
rtibia 46.1059
rfoot -5.91641 -7.4228
rtoes -11.3531
lfemur -31.4027 13.4815 -15.9547
ltibia 39.9706
lfoot -11.8346 7.87437
ltoes 2.69523
136
root 9.40221 16.5149 0.0976603 -186.785 -83.5755 192.552
lowerback 24.0069 2.78287 -1.7081
upperback 7.64172 2.57901 0.36762
thorax -5.03844 0.97532 0.684368
lowerneck -24.3476 2.72054 -2.11061
upperneck 25.0829 5.69344 -4.03931
head 12.4501 1.65961 -0.206324
rclavicle 1.77788e-014 3.49116e-015
rhumerus -17.9225 -3.67262 -79.9851
rradius 45.4008
rwrist -19.4908
rhand -11.5979 -29.5038
rfingers 7.12502
rthumb 14.4445 -58.9811
lclavicle 1.77788e-014 3.49116e-015
lhumerus -17.5785 -4.37828 82.5913
lradius 34.8628
lwrist 15.9453
lhand -21.3823 -13.8781
lfingers 7.12502
lthumb 5.00523 16.0428
rfemur -20.9375 -17.0964 7.63336
rtibia 46.8241
rfoot -6.64283 -7.85241
rtoes -11.103
lfemur -31.6968 14.0887 -15.0609
ltibia 41.0908
lfoot -12.719 7.15239
ltoes 1.73024
137
root 9.34468 16.4863 0.174044 -186.251 -83.4939 192.117
lowerback 24.3206 2.81339 -2.10504
upperback 7.61737 2.50756 0.309482
thorax -5.23342 0.937655 0.858394
lowerneck -24.2978 2.67562 -2.11809
upperneck 24.8713 5.62483 -4.05189
head 12.3558 1.63675 -0.222209
rclavicle -1.04113e-014 1.65985e-014
rhumerus -17.8783 -3.69983 -80.1946
rradius 46.7676
rwrist -19.3541
rhand -11.1903 -29.5513
rfingers 7.12502
rthumb 14.8372 -59.0001
lclavicle -1.04113e-014 1.65985e-014
lhumerus -16.5826 -4.55787 82.1455
lradius 34.4964
lwrist 15.9885
lhand -21.4703 -13.8481
lfingers 7.12502
lthumb 4.92023 16.0747
rfemur -21.9682 -17.4941 7.46475
rtibia 46.9142
rfoot -7.21907 -7.70798
rtoes -11.1052
lfemur -32.1334 14.2151 -15.4203
ltibia 42.1585
lfoot -13.5477 6.73834
ltoes 2.18014
